<?xml version="1.0" encoding="UTF-8" standalone="no"?>
<svg
   version="1.1"
   id="Layer_1"
   x="0px"
   y="0px"
   width="720"
   viewBox="0 0 720 720"
   enable-background="new 0 0 1024 1024"
   xml:space="preserve"
   sodipodi:docname="logo.svg"
   height="720"
   inkscape:version="1.1.2 (0a00cf5339, 2022-02-04)"
   xmlns:inkscape="http://www.inkscape.org/namespaces/inkscape"
   xmlns:sodipodi="http://sodipodi.sourceforge.net/DTD/sodipodi-0.dtd"
   xmlns="http://www.w3.org/2000/svg"
   xmlns:svg="http://www.w3.org/2000/svg"><defs
   id="defs39" /><sodipodi:namedview
   id="namedview37"
   pagecolor="#ffffff"
   bordercolor="#666666"
   borderopacity="1.0"
   inkscape:pageshadow="2"
   inkscape:pageopacity="0.0"
   inkscape:pagecheckerboard="0"
   showgrid="false"
   inkscape:zoom="0.85253906"
   inkscape:cx="290.30928"
   inkscape:cy="511.41352"
   inkscape:window-width="3770"
   inkscape:window-height="2123"
   inkscape:window-x="0"
   inkscape:window-y="0"
   inkscape:window-maximized="1"
   inkscape:current-layer="Layer_1" />

<path
   fill="#000000"
   opacity="1"
   stroke="none"
   d="m 520.65831,577.85248 c -22.29725,11.22284 -45.97016,14.13184 -70.10572,14.89758 -16.3125,0.51752 -32.61975,1.23633 -48.93524,1.59784 -4.07031,0.0903 -6.30347,1.47504 -6.68292,5.52045 -0.4953,5.28082 -3.15833,7.12946 -8.60046,7.09229 -16.99006,-0.11597 -33.98838,0.18084 -50.97367,0.66333 -4.95541,0.1408 -7.24835,-1.63257 -8.2966,-6.38001 -1.65295,-7.48645 -1.86322,-7.46283 -9.56042,-7.46973 -22.65412,-0.0201 -45.29401,-0.23657 -67.83622,-2.94665 -39.61172,-4.76227 -71.76275,-23.06397 -97.46551,-53.28204 -17.59488,-20.68586 -27.29822,-44.81818 -30.81513,-71.45411 -1.60943,-12.18927 -2.39193,-24.53027 -2.30041,-36.8634 0.0353,-4.74811 -1.26932,-7.86102 -5.86167,-10.37067 -14.705026,-8.03625 -14.593836,-8.27136 -14.961186,-25.06182 -0.74344,-33.97873 -0.50905,-67.95685 0.11175,-101.93424 0.0304,-1.66589 0.38039,-3.37237 0.12897,-4.98956 -1.83893,-11.82895 3.929976,-19.13089 14.177136,-23.49796 4.77975,-2.03701 5.93616,-5.75012 6.23718,-10.25778 1.6994,-25.44501 11.55261,-47.71606 26.87885,-67.69284 25.30188,-32.97943 59.21963,-52.00509 99.51397,-60.16162 22.20945,-4.49576 44.80167,-6.23938 67.35019,-8.12288 12.1092,-1.01149 24.23435,-1.83104 36.35129,-2.75063 6.13013,-0.46524 6.56238,-0.11463 6.60858,6.05121 0.0649,8.66559 0.0566,17.3317 0.11509,25.99738 0.0142,2.10324 -0.26108,4.32306 1.64291,6.2113 2.30954,-1.09338 1.66037,-3.13675 1.67316,-4.76129 0.0746,-9.49847 -0.009,-18.99838 0.10043,-28.49621 0.0239,-2.07723 -0.99152,-5.2027 2.88486,-5.06667 3.39868,0.11928 2.58752,2.92508 2.60394,4.90553 0.0789,9.49848 -0.003,18.99832 0.0707,28.49689 0.0133,1.71344 -0.6875,3.71417 1.32196,5.16745 2.84515,-0.49054 2.2207,-2.89145 2.23663,-4.64026 0.0864,-9.49786 0.11335,-18.99829 -0.0249,-28.49518 -0.0567,-3.89129 1.02161,-5.8441 5.41998,-5.543 37.35456,2.55728 75.02558,3.5606 111.53839,12.18573 51.30774,12.12 90.07795,41.1846 111.83912,90.43497 5.552,12.56546 8.34375,25.95114 9.47992,39.62643 0.23999,2.88797 1.45697,4.40775 3.84503,5.78296 16.80505,9.67719 16.76184,9.71747 16.99682,29.22278 0.29712,24.65183 0.78168,49.30255 0.88733,73.95505 0.055,12.82208 -0.56256,25.64624 -0.80926,38.47082 -0.0831,4.32001 -1.2229,7.63935 -5.77564,9.3902 -11.44757,4.40229 -17.15497,11.30963 -16.76843,25.20154 0.63501,22.81543 -2.86737,45.55249 -12.4707,66.71454 -14.91053,32.85718 -39.11261,56.7066 -71.77014,72.65228 M 372.83335,162.76972 c -8.83123,-9.2e-4 -17.66345,-0.0834 -26.49353,0.019 -9.86676,0.11447 -17.41595,-3.55212 -22.02444,-12.62753 -2.86398,-5.63999 -6.35782,-10.98645 -8.88574,-16.76361 -2.72394,-6.22522 -7.14267,-7.41596 -13.25403,-6.52793 -15.79837,2.29554 -31.71976,3.57779 -47.54279,5.77076 -31.90078,4.42123 -60.17077,16.67956 -84.24005,38.10696 -24.19833,21.54233 -39.4122,47.86829 -41.74176,80.80258 -1.69369,23.94516 -1.46621,47.94437 -1.80337,71.91516 -0.51544,36.64633 0.73535,73.28986 1.97515,109.91486 0.44388,13.11279 0.39429,26.37903 3.2176,39.25964 11.06936,50.50134 42.4458,83.28376 90.00054,101.32013 18.31052,6.9447 37.8422,7.4997 57.11454,8.00977 30.64071,0.81085 61.30767,1.15753 91.95779,0.92895 26.80963,-0.20001 53.64954,-0.1383 80.4234,-1.87091 15.09375,-0.97674 30.36151,-1.16772 44.99976,-5.58899 55.58124,-16.7876 93.35181,-63.31085 97.50049,-122.44342 2.2146,-31.56494 2.80456,-63.20404 3.78265,-94.81305 0.97363,-31.46698 0.59961,-62.97747 -0.86725,-94.44385 -0.97668,-20.95214 -6.33435,-40.81262 -16.89856,-58.97824 -20.36578,-35.01974 -50.61804,-57.46096 -89.53534,-67.88537 -23.70001,-6.34833 -48.27527,-7.46683 -72.56768,-10.1499 -3.92054,-0.43302 -6.11023,1.11313 -7.75617,4.63559 -2.32257,4.97039 -5.59406,9.51788 -7.70776,14.56134 -5.41205,12.9132 -15.25586,17.79333 -29.65345,16.84802 z"
   id="path4" />
<path
   fill="#000000"
   opacity="1"
   stroke="none"
   d="m 326.35246,654.7724 c -2.66593,0.33173 -4.14423,-0.8283 -5.49332,-2.47931 -10.32965,-12.64147 -20.70004,-25.24963 -31.0325,-37.88885 -0.38379,-0.46948 -0.50815,-1.15112 -1.19388,-2.78015 49.4896,-2.09583 98.36252,-1.85022 147.32138,-0.95636 0.0391,3.88544 -2.26105,5.15222 -3.60974,6.91174 -8.61279,11.23651 -17.38965,22.34729 -25.99994,33.58563 -1.99945,2.60968 -4.23285,3.69471 -7.60162,3.67585 -23.99494,-0.13489 -47.99109,-0.0682 -72.39038,-0.0686 z"
   id="path6" />
<path
   fill="#000000"
   opacity="1"
   stroke="none"
   d="m 355.36766,69.18103 c 0.51767,-2.56268 -0.0512,-3.93504 -2.06705,-5.33647 -5.45722,-3.79405 -8.63346,-9.187633 -9.21213,-15.881593 -0.91052,-10.532649 5.3234,-18.679979 15.53497,-20.496579 8.95844,-1.593691 19.34491,5.26835 21.86353,14.4444 2.34747,8.553039 -0.56854,16.385722 -8.3352,21.013092 -2.88111,1.71654 -3.89423,3.66801 -3.59913,6.85498 0.24457,2.64078 0.3255,5.36479 -0.0389,7.97972 -0.75525,5.41749 2.04663,6.93132 6.79224,7.3661 11.33099,1.03812 11.32031,1.15537 11.27539,12.45882 -0.001,0.33305 0.003,0.66623 -0.005,0.99915 -0.34089,14.88531 2.15203,13.56337 -14.40863,12.64987 -1.65937,-0.0915 -3.30628,-0.4177 -4.9657,-0.50025 -9.0853,-0.45198 -8.99271,-0.43867 -9.10834,-9.84221 -0.0559,-4.55131 0.70038,-9.19363 -1.50147,-13.72245 -3.47561,7.32121 -0.8843,15.33801 -2.26049,23.09352 -4.70044,1.93416 -9.7193,1.32351 -14.65366,1.44265 -2.23053,0.0539 -2.82602,-1.382 -2.82236,-3.25543 0.0117,-5.98604 0.10392,-11.97246 0.0558,-17.95785 -0.0234,-2.90401 1.27594,-4.24327 4.14712,-4.41953 3.15189,-0.19348 6.28711,-0.7755 9.43726,-0.84619 2.92435,-0.0656 4.20886,-0.96947 3.9541,-4.15378 -0.30438,-3.80452 -0.0888,-7.65065 -0.0823,-11.88997 m 12.77514,22.333 c -0.24444,-1.43387 0.41443,-3.32125 -2.1607,-4.11515 0,6.78968 0,13.18702 0,19.58435 0.48968,0.0339 0.97931,0.0678 1.46899,0.10173 1.55866,-4.75102 0.48102,-9.80583 0.69171,-15.57093 z"
   id="path8" />

<path
   fill="#000000"
   opacity="1"
   stroke="none"
   d="m 639.77354,402.83771 c -3.52332,1.58862 -6.69531,3.01245 -9.94305,4.47028 -2.29944,-2.7204 -1.40943,-5.64563 -1.2688,-8.3244 1.3446,-25.61847 2.11261,-51.25144 1.4563,-76.89933 -0.34894,-13.63708 -1.28003,-27.25879 -1.88782,-40.89013 -0.0875,-1.96192 -0.46552,-3.98819 0.69513,-6.57453 3.84668,1.56116 7.55182,3.75486 11.82702,4.207 1.7251,0.1825 1.92536,2.04322 2.05732,3.59348 0.6062,7.1199 1.55523,14.22702 1.79791,21.35861 0.91174,26.79318 1.24182,53.59464 0.009,80.3905 -0.19873,4.31928 -0.6474,8.62653 -0.8858,12.94464 -0.14093,2.5525 -1.08637,4.49415 -3.85724,5.72388 z"
   id="path12" />
<path
   fill="#000000"
   opacity="1"
   stroke="none"
   d="m 95.592084,342.42829 c -0.29446,22.05987 1.0074,43.5954 1.52072,65.63177 -4.68387,-2.04699 -8.75596,-3.80322 -12.80606,-5.6087 -1.52708,-0.68079 -2.12336,-1.98651 -2.23152,-3.61365 -1.42525,-21.44165 -2.677,-42.88479 -1.32959,-64.38531 0.7605,-12.1355 -0.07,-24.32343 1.24996,-36.44818 0.55769,-5.12259 0.7406,-10.28589 1.09919,-15.43033 0.11168,-1.6023 0.67504,-2.84464 2.34462,-3.46503 3.86334,-1.43549 7.69351,-2.96027 12.27036,-4.73279 -0.44727,22.81259 -2.47345,45.15698 -2.11768,68.05222 z"
   id="path14" />
<path
   fill="#000000"
   opacity="1"
   stroke="none"
   d="m 390.72239,665.7768 c -2.30688,2.86462 -4.57782,5.32208 -6.44476,8.05542 -1.68921,2.47314 -3.88727,3.52093 -6.71399,3.52929 -9.97144,0.0295 -19.94299,0.0404 -29.91443,0.0198 -1.6672,-0.003 -3.41241,-0.1366 -4.65765,-1.40918 -5.66053,-5.78485 -11.53867,-11.38531 -16.75348,-18.89947 24.00039,0 47.19836,0 70.84363,0 -1.36994,3.89453 -4.56458,5.57037 -6.35932,8.7041 z"
   id="path16" />




<path
   fill="#000000"
   opacity="1"
   stroke="none"
   d="m 453.36094,451.04706 c 23.82324,-0.2174 47.15125,0.5105 70.4729,-0.4422 4.31024,-0.17602 8.67017,0.10413 12.96784,0.55133 7.15057,0.74396 11.0357,5.9859 9.27734,12.98603 -9.77777,38.92627 -37.37537,70.35534 -83.19849,75.69323 -49.1488,5.72528 -98.40661,5.49622 -147.68734,4.57715 -21.263,-0.39648 -42.60962,-1.79626 -63.50171,-6.33172 -33.02042,-7.16846 -55.08472,-27.46308 -68.18012,-58.12928 -2.29641,-5.37762 -3.88858,-10.97131 -4.9371,-16.72851 -1.13837,-6.25086 2.47284,-11.26679 8.83472,-11.96466 2.14413,-0.23517 4.32763,-0.14594 6.49316,-0.14655 86.31958,-0.0256 172.63916,-0.0445 259.4588,-0.0648 z"
   id="path26" />
<path
   fill="#000000"
   opacity="1"
   stroke="none"
   d="m 556.51872,336.24311 c -8.7713,30.93298 -27.72742,51.25592 -59.03522,58.71924 -44.91894,10.70813 -87.89465,-19.77546 -93.56549,-65.72037 -4.96796,-40.25067 20.85706,-77.56738 60.4715,-86.40109 43.36395,-9.6698 85.82122,19.08218 92.40936,62.77621 1.52588,10.12027 1.88422,20.15353 -0.28015,30.62601 m -70.16901,-78.4632 c -6.56946,-3.29086 -12.90387,-2.9823 -18.61005,1.75363 -4.52447,3.75519 -6.46258,8.87546 -5.48559,14.6576 1.29248,7.64935 7.60791,13.25827 14.94543,13.85284 6.52625,0.52884 13.88141,-4.09119 16.26819,-10.21848 2.75299,-7.06747 0.31745,-14.46289 -7.11798,-20.04559 z"
   id="path28" />
<path
   fill="#000000"
   opacity="1"
   stroke="none"
   d="m 303.27012,272.57474 c 21.29788,29.18149 21.35602,67.80979 -0.93811,95.35242 -18.41391,22.74899 -42.65558,31.74679 -71.32809,28.32486 -34.85657,-4.15998 -62.08991,-31.13886 -66.6424,-68.22971 -6.30053,-51.33313 39.05771,-92.61148 84.03363,-86.23834 22.44809,3.18094 40.74365,12.62045 54.87497,30.79077 m -53.12619,-11.37332 c -1.12949,-0.97467 -2.16391,-2.09628 -3.40463,-2.89899 -5.89249,-3.81228 -14.49841,-3.54904 -19.74484,0.50965 -5.18808,4.01349 -7.54953,11.53845 -5.54276,17.43432 2.33182,6.8508 7.27011,10.84958 14.22046,11.6576 6.39877,0.74386 11.77478,-2.02012 15.34012,-7.46769 4.06763,-6.21508 3.75381,-12.53183 -0.86835,-19.23489 z"
   id="path30" />
<path
   fill="#000000"
   opacity="1"
   stroke="none"
   d="m 214.36863,537.91718 c -0.0134,6.68066 -2.54388,10.45825 -8.01248,12.70593 -4.79794,1.97199 -8.82684,0.38764 -12.26358,-2.86413 -4.78073,-4.52344 -4.5831,-12.13392 0.17938,-16.31678 5.21918,-4.58398 14.05045,-3.59845 18.03662,2.09424 0.83942,1.19873 1.31784,2.65039 2.06006,4.38074 m -8.7558,6.31793 c 2.12909,-2.50769 2.3733,-5.17322 0.0634,-7.56854 -1.46848,-1.52277 -3.53653,-1.89765 -5.53812,-0.79285 -2.40207,1.32575 -3.04217,3.58588 -2.38562,6.01136 1.08536,4.0097 4.10401,3.68438 7.86032,2.35003 z"
   id="path32" />
<path
   fill="#000000"
   opacity="1"
   stroke="none"
   d="m 515.24559,529.99897 c 5.2976,-2.84375 10.01568,-2.32148 14.05175,1.49359 3.45227,3.26324 4.21387,7.37799 2.34284,11.83813 -1.79352,4.27545 -4.67444,7.18378 -9.6023,7.39899 -4.8797,0.21313 -8.16552,-2.28497 -10.34875,-6.36871 -2.24793,-4.20502 -1.92438,-8.29004 1.13287,-12.03669 0.62238,-0.76275 1.39899,-1.39971 2.42359,-2.32531 m 8.85125,5.94067 c -2.55005,-0.76062 -5.13031,-0.96905 -6.27203,1.98175 -0.83173,2.14966 -0.99695,4.68585 1.10315,6.38794 1.54797,1.25446 3.5177,1.15729 5.06341,-0.0674 2.62427,-2.07923 2.66626,-4.70563 1.06049,-7.47571 -0.0813,-0.14044 -0.21014,-0.25324 -0.95502,-0.82654 z"
   id="path34" />
</svg>
